<svg width="130px" xmlns="http://www.w3.org/2000/svg" viewBox="0 0 989.55 590.44">
    <defs>
        <style>
            .cls-1 {
                opacity: 0.57;
            }

            .cls-2 {
                fill: #376eb5;
            }

            .cls-3 {
                fill: #231f20;
            }
        </style>
    </defs>
    <g id="Layer_2" data-name="Layer 2">
        <g id="Layer_1-2" data-name="Layer 1">
            <polygon class="cls-1" points="85.75 462.99 86.36 462.02 85.93 463.09 85.75 462.99" />
            <polygon points="86.43 461.87 86.36 462.02 86.4 461.87 86.43 461.87" />
            <path class="cls-2"
                d="M0,570.26l32.46-72.82H49.1l32.56,72.82H64L37.35,506H44L17.27,570.26Zm16.23-15.61,4.47-12.79H58.15l4.57,12.79Z" />
            <path class="cls-2"
                d="M122.12,513.46A26,26,0,0,1,134,516.11a19.27,19.27,0,0,1,8.27,8.12q3,5.46,3,14v32H129.09V540.71q0-6.75-3-10t-8.38-3.23a14.56,14.56,0,0,0-6.91,1.62,11.12,11.12,0,0,0-4.79,4.94,18.62,18.62,0,0,0-1.71,8.53v27.67H88.11V493.07h16.23v36.72l-3.65-4.68a20.72,20.72,0,0,1,8.64-8.63A26.61,26.61,0,0,1,122.12,513.46Z" />
            <path class="cls-2"
                d="M178.81,571.09A54.31,54.31,0,0,1,165,569.37a33.81,33.81,0,0,1-10.45-4.32L160,553.4a35.9,35.9,0,0,0,9.1,3.91,37.55,37.55,0,0,0,10.35,1.5c3.74,0,6.4-.45,8-1.35a4.15,4.15,0,0,0,2.34-3.74,3.19,3.19,0,0,0-1.83-3,15.91,15.91,0,0,0-4.83-1.51q-3-.51-6.61-1t-7.23-1.4a24.53,24.53,0,0,1-6.65-2.65,13.47,13.47,0,0,1-4.84-4.79A16.56,16.56,0,0,1,159,522.2a20.23,20.23,0,0,1,8.89-6.4,37.38,37.38,0,0,1,13.94-2.34,56.61,56.61,0,0,1,11.65,1.25,31.57,31.57,0,0,1,9.88,3.64L198,529.9a27.24,27.24,0,0,0-8.16-3.28,37.85,37.85,0,0,0-8-.89q-5.4,0-7.91,1.46a4.29,4.29,0,0,0-2.49,3.75,3.39,3.39,0,0,0,1.82,3.12,16.77,16.77,0,0,0,4.84,1.66q3,.63,6.6,1.09a61,61,0,0,1,7.23,1.41,25.89,25.89,0,0,1,6.6,2.65,13.81,13.81,0,0,1,4.84,4.68,14.32,14.32,0,0,1,1.88,7.75,14.57,14.57,0,0,1-3.12,9.21,20.49,20.49,0,0,1-9,6.29A39.68,39.68,0,0,1,178.81,571.09Z" />
            <path class="cls-2"
                d="M232.49,571.09a25.9,25.9,0,0,1-11.24-2.24,17.14,17.14,0,0,1-7.18-6.08,16.5,16.5,0,0,1,0-17.37,15.94,15.94,0,0,1,7.74-5.88q5.31-2.13,13.84-2.13h14.87v9.46h-13.1c-3.82,0-6.44.63-7.86,1.87a6,6,0,0,0-2.13,4.68,5.86,5.86,0,0,0,2.44,5,11.06,11.06,0,0,0,6.72,1.81,13.87,13.87,0,0,0,7.28-1.92,11,11,0,0,0,4.68-5.67l2.5,7.49a14.54,14.54,0,0,1-6.46,8.22C241.44,570.15,237.41,571.09,232.49,571.09Zm17.06-.83V559.33l-1-2.39V537.39a10.46,10.46,0,0,0-3.18-8.12q-3.17-2.91-9.72-2.91a28.4,28.4,0,0,0-8.79,1.4,23.39,23.39,0,0,0-7.33,3.8l-5.83-11.34a35.16,35.16,0,0,1,11-5,49.38,49.38,0,0,1,13.11-1.77q12.79,0,19.87,6t7.07,18.83v31.94Z" />
            <path class="cls-2"
                d="M313.42,513.46a26.08,26.08,0,0,1,11.91,2.65,19.32,19.32,0,0,1,8.27,8.12q3,5.46,3,14v32H320.38V540.71q0-6.75-3-10T309,527.5a14.56,14.56,0,0,0-6.91,1.62,11.1,11.1,0,0,0-4.78,4.94,18.49,18.49,0,0,0-1.72,8.53v27.67H279.4v-56h15.5v15.5L292,525.11a20.75,20.75,0,0,1,8.63-8.63A26.62,26.62,0,0,1,313.42,513.46Z" />
            <path class="cls-3"
                d="M398.61,556.74h39.63v13.52H381.86V497.44h55V511H398.61Zm-1.25-30h35.05v13.1H397.36Z" />
            <path class="cls-3"
                d="M484.53,513.46a26.05,26.05,0,0,1,11.91,2.65,19.27,19.27,0,0,1,8.27,8.12q3,5.46,3,14v32H491.5V540.71q0-6.75-3-10t-8.37-3.23a14.6,14.6,0,0,0-6.92,1.62,11.16,11.16,0,0,0-4.78,4.94,18.49,18.49,0,0,0-1.72,8.53v27.67H450.51v-56H466v15.5l-2.91-4.68a20.75,20.75,0,0,1,8.63-8.63A26.65,26.65,0,0,1,484.53,513.46Z" />
            <path class="cls-3"
                d="M515.74,528V515.54h38.79V528Zm29.54,43.07q-9.88,0-15.4-5.05t-5.51-15V501.92H540.6V550.8a7.53,7.53,0,0,0,1.87,5.47,6.8,6.8,0,0,0,5.1,1.92,10.43,10.43,0,0,0,6.55-2.08l4.37,11.44a17.69,17.69,0,0,1-6,2.65A29.34,29.34,0,0,1,545.28,571.09Z" />
            <path class="cls-3"
                d="M593.65,571.09a36.11,36.11,0,0,1-16.8-3.74,27.63,27.63,0,0,1-11.18-10.25,27.94,27.94,0,0,1-4-14.82,28.44,28.44,0,0,1,3.9-14.93,27.69,27.69,0,0,1,10.67-10.2,33.37,33.37,0,0,1,30.11-.2,26.06,26.06,0,0,1,10.45,10,30,30,0,0,1,3.85,15.55c0,.63,0,1.34-.1,2.14s-.14,1.54-.21,2.23H574.93v-9.46h36.92l-6.24,2.8a15.54,15.54,0,0,0-1.77-7.59,12.88,12.88,0,0,0-4.89-5,14.13,14.13,0,0,0-7.28-1.83,14.4,14.4,0,0,0-7.33,1.83,12.67,12.67,0,0,0-4.94,5.09,16.1,16.1,0,0,0-1.77,7.75v2.5a15.74,15.74,0,0,0,2,8.06,13.24,13.24,0,0,0,5.72,5.31,19.46,19.46,0,0,0,8.69,1.82,21.09,21.09,0,0,0,7.85-1.35,19.46,19.46,0,0,0,6.19-4.06l8.63,9.36a25.14,25.14,0,0,1-9.67,6.71A35.84,35.84,0,0,1,593.65,571.09Z" />
            <path class="cls-3"
                d="M631.51,570.26v-56H647V530.1l-2.18-4.57a17.89,17.89,0,0,1,8-9,27.14,27.14,0,0,1,13.42-3.07v15c-.7-.07-1.32-.12-1.88-.16s-1.14,0-1.77,0a15.24,15.24,0,0,0-10.76,3.8q-4.11,3.79-4.11,11.8v26.43Z" />
            <path class="cls-3"
                d="M675.93,590.44V514.29h15.5v11.44l-.31,16.65,1,16.54v31.52ZM709,571.09A23.94,23.94,0,0,1,696.63,568a20.79,20.79,0,0,1-8.27-9.52q-3-6.39-3-16.17t2.81-16.23a20,20,0,0,1,8.12-9.47A24.56,24.56,0,0,1,709,513.46a28.19,28.19,0,0,1,14.2,3.59,26.44,26.44,0,0,1,10,10,33.24,33.24,0,0,1,0,30.48,26.07,26.07,0,0,1-10,10A28.47,28.47,0,0,1,709,571.09Zm-2.81-13.32a13.53,13.53,0,0,0,12.33-7.22,18.9,18.9,0,0,0,0-16.6,14.47,14.47,0,0,0-19.61-5.3,13.49,13.49,0,0,0-5.1,5.3,19.35,19.35,0,0,0,0,16.6,13.36,13.36,0,0,0,5.1,5.35A14.2,14.2,0,0,0,706.2,557.77Z" />
            <path class="cls-3"
                d="M747.7,570.26v-56h15.5V530.1L761,525.53a17.89,17.89,0,0,1,8-9,27.17,27.17,0,0,1,13.42-3.07v15c-.7-.07-1.32-.12-1.88-.16s-1.14,0-1.77,0A15.24,15.24,0,0,0,768,532q-4.11,3.79-4.11,11.8v26.43Z" />
            <path class="cls-3"
                d="M800.23,506.49a10.3,10.3,0,0,1-7.28-2.6,8.81,8.81,0,0,1,0-12.9,10.3,10.3,0,0,1,7.28-2.6,10.69,10.69,0,0,1,7.28,2.45,7.93,7.93,0,0,1,2.81,6.29,9,9,0,0,1-2.75,6.71A10.14,10.14,0,0,1,800.23,506.49Zm-8.11,63.77v-56h16.23v56Z" />
            <path class="cls-3"
                d="M842.26,571.09a54.26,54.26,0,0,1-13.78-1.72A33.88,33.88,0,0,1,818,565.05l5.41-11.65a36,36,0,0,0,9.11,3.91,37.43,37.43,0,0,0,10.34,1.5q5.63,0,8-1.35a4.15,4.15,0,0,0,2.34-3.74,3.18,3.18,0,0,0-1.82-3,15.91,15.91,0,0,0-4.83-1.51q-3-.51-6.61-1t-7.23-1.4a24.47,24.47,0,0,1-6.66-2.65,13.52,13.52,0,0,1-4.83-4.79,14.86,14.86,0,0,1-1.83-7.8,15.11,15.11,0,0,1,3.07-9.36,20.27,20.27,0,0,1,8.9-6.4,37.35,37.35,0,0,1,13.94-2.34,56.69,56.69,0,0,1,11.65,1.25,31.76,31.76,0,0,1,9.88,3.64L861.4,529.9a27.39,27.39,0,0,0-8.17-3.28,37.75,37.75,0,0,0-8-.89c-3.61,0-6.24.49-7.91,1.46a4.29,4.29,0,0,0-2.49,3.75,3.39,3.39,0,0,0,1.81,3.12,17,17,0,0,0,4.84,1.66q3,.63,6.61,1.09a61,61,0,0,1,7.23,1.41,26.19,26.19,0,0,1,6.6,2.65,13.89,13.89,0,0,1,4.84,4.68,14.32,14.32,0,0,1,1.87,7.75,14.57,14.57,0,0,1-3.12,9.21,20.44,20.44,0,0,1-9,6.29A39.58,39.58,0,0,1,842.26,571.09Z" />
            <path class="cls-3"
                d="M906.44,571.09a36.11,36.11,0,0,1-16.8-3.74,27.63,27.63,0,0,1-11.18-10.25,27.94,27.94,0,0,1-4-14.82,28.36,28.36,0,0,1,3.91-14.93,27.59,27.59,0,0,1,10.66-10.2,33.37,33.37,0,0,1,30.11-.2,26.08,26.08,0,0,1,10.46,10,30.06,30.06,0,0,1,3.85,15.55c0,.63,0,1.34-.11,2.14s-.14,1.54-.21,2.23H887.72v-9.46h36.92l-6.24,2.8a15.54,15.54,0,0,0-1.77-7.59,12.88,12.88,0,0,0-4.89-5,14.11,14.11,0,0,0-7.28-1.83,14.4,14.4,0,0,0-7.33,1.83,12.67,12.67,0,0,0-4.94,5.09,16.1,16.1,0,0,0-1.77,7.75v2.5a15.74,15.74,0,0,0,2,8.06,13.24,13.24,0,0,0,5.72,5.31,19.46,19.46,0,0,0,8.69,1.82,21.09,21.09,0,0,0,7.85-1.35,19.35,19.35,0,0,0,6.19-4.06l8.63,9.36a25.14,25.14,0,0,1-9.67,6.71A35.84,35.84,0,0,1,906.44,571.09Z" />
            <path class="cls-3"
                d="M963.13,571.09a54.31,54.31,0,0,1-13.78-1.72,33.88,33.88,0,0,1-10.46-4.32l5.41-11.65a36,36,0,0,0,9.11,3.91,37.54,37.54,0,0,0,10.34,1.5q5.63,0,8-1.35a4.15,4.15,0,0,0,2.34-3.74,3.18,3.18,0,0,0-1.82-3,15.91,15.91,0,0,0-4.83-1.51q-3-.51-6.61-1t-7.23-1.4a24.47,24.47,0,0,1-6.66-2.65,13.52,13.52,0,0,1-4.83-4.79,14.86,14.86,0,0,1-1.82-7.8,15.1,15.1,0,0,1,3.06-9.36,20.27,20.27,0,0,1,8.9-6.4,37.35,37.35,0,0,1,13.94-2.34,56.61,56.61,0,0,1,11.65,1.25,31.76,31.76,0,0,1,9.88,3.64l-5.41,11.55a27.29,27.29,0,0,0-8.17-3.28,37.68,37.68,0,0,0-8-.89c-3.61,0-6.24.49-7.91,1.46a4.29,4.29,0,0,0-2.49,3.75,3.39,3.39,0,0,0,1.81,3.12,17,17,0,0,0,4.84,1.66c2,.42,4.22.78,6.61,1.09a61,61,0,0,1,7.23,1.41,25.89,25.89,0,0,1,6.6,2.65,13.89,13.89,0,0,1,4.84,4.68,14.32,14.32,0,0,1,1.87,7.75,14.57,14.57,0,0,1-3.12,9.21,20.44,20.44,0,0,1-9,6.29A39.58,39.58,0,0,1,963.13,571.09Z" />
            <polygon points="441.11 0 478.32 56.73 979.39 56.73 979.39 0 441.11 0" />
            <polygon class="cls-2" points="573.64 210.91 605.86 262.2 979.39 262.2 979.39 210.91 573.64 210.91" />
            <polygon points="696.18 411.8 731.13 465.81 979.39 465.81 979.39 411.8 696.18 411.8" />
            <polygon class="cls-2" points="522.57 414.3 555.7 465.81 627.87 465.81 594.28 414.3 522.57 414.3" />
            <polygon
                points="98.09 467.93 20.95 467.93 346.25 0 518.72 265.62 444.98 265.62 343.58 114.25 98.09 467.93" />
        </g>
    </g>
</svg>