<svg width="140px" xmlns="http://www.w3.org/2000/svg" viewBox="0 0 1034.46 321.84">
    <defs>
        <style>
            .cls-1 {
                opacity: 0.57;
            }

            .cls-2 {
                fill: #376eb5;
            }

            .cls-3 {
                fill: #231f20;
            }
        </style>
    </defs>
    <g id="Layer_2" data-name="Layer 2">
        <g id="Layer_1-2" data-name="Layer 1">
            <polygon class="cls-1" points="43.9 321.76 44.31 321.11 44.02 321.83 43.9 321.76" />
            <polygon points="44.36 321.01 44.31 321.11 44.34 321.01 44.36 321.01" />
            <path class="cls-2"
                d="M426.86,87.12,463.5,4.93h18.78L519,87.12h-20L469,14.56h7.51L446.35,87.12Zm18.32-17.61,5.05-14.44H492.5l5.16,14.44Z" />
            <path class="cls-2"
                d="M564.71,23a29.49,29.49,0,0,1,13.44,3,21.78,21.78,0,0,1,9.34,9.17q3.4,6.15,3.4,15.79V87.12H572.57V53.77q0-7.62-3.34-11.27t-9.46-3.64a16.53,16.53,0,0,0-7.8,1.82,12.63,12.63,0,0,0-5.4,5.58,20.86,20.86,0,0,0-1.94,9.63V87.12H526.31V0h18.32V41.44l-4.11-5.28a23.45,23.45,0,0,1,9.74-9.74A30.09,30.09,0,0,1,564.71,23Z" />
            <path class="cls-2"
                d="M628.7,88.06a61.71,61.71,0,0,1-15.56-1.94,38.45,38.45,0,0,1-11.8-4.87l6.11-13.15a40.37,40.37,0,0,0,10.27,4.4,42,42,0,0,0,11.68,1.7c4.23,0,7.23-.5,9-1.52A4.71,4.71,0,0,0,641,68.45,3.61,3.61,0,0,0,639,65.1a18.34,18.34,0,0,0-5.46-1.7q-3.4-.59-7.45-1.17t-8.16-1.59a27.56,27.56,0,0,1-7.52-3,15.35,15.35,0,0,1-5.46-5.4,16.87,16.87,0,0,1-2-8.81,17.06,17.06,0,0,1,3.46-10.57,23,23,0,0,1,10-7.22A42.17,42.17,0,0,1,632.1,23a63.63,63.63,0,0,1,13.15,1.41,35.74,35.74,0,0,1,11.16,4.11l-6.11,13a30.75,30.75,0,0,0-9.21-3.69,42.46,42.46,0,0,0-9-1q-6.11,0-8.92,1.64t-2.82,4.23a3.81,3.81,0,0,0,2.06,3.52,18.79,18.79,0,0,0,5.46,1.88c2.26.47,4.75.88,7.45,1.23A66.7,66.7,0,0,1,643.49,51,29.32,29.32,0,0,1,651,54a15.67,15.67,0,0,1,5.46,5.28A16.17,16.17,0,0,1,658.52,68,16.4,16.4,0,0,1,655,78.37a23,23,0,0,1-10.16,7.1A44.61,44.61,0,0,1,628.7,88.06Z" />
            <path class="cls-2"
                d="M689.28,88.06a29.08,29.08,0,0,1-12.68-2.53,19.29,19.29,0,0,1-8.1-6.86,18.62,18.62,0,0,1-.06-19.61,18.07,18.07,0,0,1,8.75-6.64q6-2.4,15.62-2.4h16.78V60.7H694.8c-4.31,0-7.26.71-8.87,2.12a6.73,6.73,0,0,0-2.4,5.28,6.59,6.59,0,0,0,2.76,5.58,12.46,12.46,0,0,0,7.57,2,15.73,15.73,0,0,0,8.22-2.17,12.44,12.44,0,0,0,5.28-6.4l2.82,8.45a16.39,16.39,0,0,1-7.28,9.28Q697.62,88.06,689.28,88.06Zm19.26-.94V74.79l-1.18-2.7V50q0-5.88-3.58-9.16t-11-3.29a31.83,31.83,0,0,0-9.93,1.59,26.05,26.05,0,0,0-8.27,4.28L668,30.64A39.69,39.69,0,0,1,680.47,25a55.81,55.81,0,0,1,14.8-2q14.44,0,22.43,6.81t8,21.25V87.12Z" />
            <path class="cls-2"
                d="M780.63,23a29.46,29.46,0,0,1,13.44,3,21.78,21.78,0,0,1,9.34,9.17q3.4,6.15,3.4,15.79V87.12H788.49V53.77q0-7.62-3.34-11.27t-9.45-3.64a16.57,16.57,0,0,0-7.81,1.82,12.63,12.63,0,0,0-5.4,5.58,21,21,0,0,0-1.94,9.63V87.12H742.23V24h17.5V41.44l-3.29-5.28a23.42,23.42,0,0,1,9.75-9.74A30,30,0,0,1,780.63,23Z" />
            <path class="cls-3" d="M444.1,177.54h39.6v13.51H427.37V118.31h55v13.5H444.1Zm-1.25-29.93h35v13.1h-35Z" />
            <path class="cls-3"
                d="M529.94,134.31a26,26,0,0,1,11.9,2.65,19.28,19.28,0,0,1,8.26,8.11q3,5.44,3,14v32H536.9V161.53q0-6.75-3-10t-8.37-3.22a14.67,14.67,0,0,0-6.91,1.61,11.21,11.21,0,0,0-4.78,4.94,18.55,18.55,0,0,0-1.71,8.52v27.64H496V135.14h15.48v15.48L508.53,146a20.75,20.75,0,0,1,8.63-8.63A26.57,26.57,0,0,1,529.94,134.31Z" />
            <path class="cls-3"
                d="M561.12,148.86V136.39h38.76v12.47Zm29.51,43q-9.89,0-15.38-5t-5.51-15v-49H586v48.84a7.48,7.48,0,0,0,1.87,5.45,6.79,6.79,0,0,0,5.09,1.92,10.39,10.39,0,0,0,6.55-2.08l4.37,11.44a17.89,17.89,0,0,1-6,2.65A29.68,29.68,0,0,1,590.63,191.88Z" />
            <path class="cls-3"
                d="M639,191.88a36,36,0,0,1-16.78-3.74A27.51,27.51,0,0,1,611,177.9a27.84,27.84,0,0,1-4-14.8,28.4,28.4,0,0,1,3.89-14.92A27.61,27.61,0,0,1,621.6,138a33.35,33.35,0,0,1,30.08-.21,26,26,0,0,1,10.44,10A30,30,0,0,1,666,163.3c0,.62,0,1.34-.11,2.13s-.14,1.55-.2,2.24H620.25v-9.46h36.89L650.9,161a15.54,15.54,0,0,0-1.77-7.59,12.86,12.86,0,0,0-4.88-5,14.22,14.22,0,0,0-7.27-1.82,14.47,14.47,0,0,0-7.33,1.82,12.67,12.67,0,0,0-4.94,5.09,16.08,16.08,0,0,0-1.76,7.74v2.5a15.7,15.7,0,0,0,2,8.05,13.22,13.22,0,0,0,5.72,5.3,19.45,19.45,0,0,0,8.68,1.82,21,21,0,0,0,7.84-1.35,19,19,0,0,0,6.18-4.06l8.63,9.36a25.16,25.16,0,0,1-9.66,6.7A35.78,35.78,0,0,1,639,191.88Z" />
            <path class="cls-3"
                d="M676.77,191.05V135.14h15.49v15.79l-2.18-4.57a17.93,17.93,0,0,1,8-9,27.23,27.23,0,0,1,13.4-3.06v15c-.69-.06-1.31-.12-1.87-.15s-1.14-.05-1.76-.05q-6.66,0-10.76,3.79T693,164.65v26.4Z" />
            <path class="cls-3"
                d="M721.15,211.21V135.14h15.48v11.43l-.31,16.63,1,16.52v31.49Zm33-19.33a23.9,23.9,0,0,1-12.36-3.12,20.71,20.71,0,0,1-8.26-9.5q-3-6.4-3-16.16t2.81-16.22a19.91,19.91,0,0,1,8.11-9.45,24.52,24.52,0,0,1,12.67-3.12,28.12,28.12,0,0,1,14.19,3.58,26.53,26.53,0,0,1,10,10,33.25,33.25,0,0,1,0,30.45,26,26,0,0,1-10,10A28.51,28.51,0,0,1,754.19,191.88Zm-2.8-13.3a14,14,0,0,0,7.22-1.87,13.82,13.82,0,0,0,5.09-5.35,18.86,18.86,0,0,0,0-16.58,13.58,13.58,0,0,0-12.31-7.17,14.22,14.22,0,0,0-7.28,1.87,13.46,13.46,0,0,0-5.09,5.3,19.31,19.31,0,0,0,0,16.58,13.34,13.34,0,0,0,5.09,5.35A14.32,14.32,0,0,0,751.39,178.58Z" />
            <path class="cls-3"
                d="M792.85,191.05V135.14h15.48v15.79l-2.18-4.57a18,18,0,0,1,8-9,27.24,27.24,0,0,1,13.41-3.06v15c-.7-.06-1.32-.12-1.87-.15s-1.15-.05-1.77-.05q-6.64,0-10.75,3.79t-4.11,11.79v26.4Z" />
            <path class="cls-3"
                d="M845.33,127.35a10.3,10.3,0,0,1-7.28-2.6,8.82,8.82,0,0,1,0-12.89,10.3,10.3,0,0,1,7.28-2.6,10.68,10.68,0,0,1,7.27,2.45,7.94,7.94,0,0,1,2.81,6.29,8.9,8.9,0,0,1-2.76,6.7A10.14,10.14,0,0,1,845.33,127.35Zm-8.11,63.7V135.14h16.21v55.91Z" />
            <path class="cls-3"
                d="M887.31,191.88a54.69,54.69,0,0,1-13.77-1.71,34.24,34.24,0,0,1-10.44-4.32l5.4-11.64a35.54,35.54,0,0,0,9.1,3.9,37.06,37.06,0,0,0,10.33,1.51q5.63,0,8-1.35a4.17,4.17,0,0,0,2.33-3.75,3.17,3.17,0,0,0-1.82-3,16.22,16.22,0,0,0-4.83-1.5c-2-.35-4.21-.69-6.6-1s-4.79-.82-7.22-1.4A24.55,24.55,0,0,1,871.1,165a13.41,13.41,0,0,1-4.83-4.78A16.53,16.53,0,0,1,867.52,143a20.26,20.26,0,0,1,8.88-6.39,37.27,37.27,0,0,1,13.92-2.34A56.37,56.37,0,0,1,902,135.56a31.77,31.77,0,0,1,9.88,3.63l-5.41,11.54a27.25,27.25,0,0,0-8.15-3.27,37.77,37.77,0,0,0-8-.89q-5.4,0-7.89,1.46a4.27,4.27,0,0,0-2.49,3.74,3.39,3.39,0,0,0,1.81,3.12,16.92,16.92,0,0,0,4.83,1.66c2,.41,4.21.78,6.6,1.09a61,61,0,0,1,7.23,1.4,26.34,26.34,0,0,1,6.59,2.65,13.89,13.89,0,0,1,4.84,4.68,14.35,14.35,0,0,1,1.87,7.74,14.54,14.54,0,0,1-3.12,9.2,20.47,20.47,0,0,1-9,6.28A39.56,39.56,0,0,1,887.31,191.88Z" />
            <path class="cls-3"
                d="M951.43,191.88a36.07,36.07,0,0,1-16.79-3.74,27.64,27.64,0,0,1-11.17-10.24,27.93,27.93,0,0,1-4-14.8,28.41,28.41,0,0,1,3.9-14.92A27.65,27.65,0,0,1,934.07,138a33.37,33.37,0,0,1,30.09-.21,26,26,0,0,1,10.44,10,30,30,0,0,1,3.85,15.53c0,.62,0,1.34-.11,2.13s-.14,1.55-.2,2.24H932.72v-9.46h36.89L963.38,161a15.54,15.54,0,0,0-1.77-7.59,12.93,12.93,0,0,0-4.88-5,14.23,14.23,0,0,0-7.28-1.82,14.46,14.46,0,0,0-7.32,1.82,12.67,12.67,0,0,0-4.94,5.09,16.08,16.08,0,0,0-1.77,7.74v2.5a15.71,15.71,0,0,0,2,8.05,13.22,13.22,0,0,0,5.72,5.3,19.43,19.43,0,0,0,8.67,1.82,21.06,21.06,0,0,0,7.85-1.35,19,19,0,0,0,6.18-4.06l8.63,9.36a25.2,25.2,0,0,1-9.67,6.7A35.73,35.73,0,0,1,951.43,191.88Z" />
            <path class="cls-3"
                d="M1008.06,191.88a54.69,54.69,0,0,1-13.77-1.71,34.24,34.24,0,0,1-10.44-4.32l5.4-11.64a35.54,35.54,0,0,0,9.1,3.9,37.06,37.06,0,0,0,10.33,1.51q5.63,0,8-1.35a4.17,4.17,0,0,0,2.33-3.75,3.17,3.17,0,0,0-1.82-3,16.22,16.22,0,0,0-4.83-1.5c-2-.35-4.21-.69-6.6-1s-4.79-.82-7.22-1.4a24.55,24.55,0,0,1-6.65-2.66,13.41,13.41,0,0,1-4.83-4.78A16.53,16.53,0,0,1,988.27,143a20.26,20.26,0,0,1,8.88-6.39,37.27,37.27,0,0,1,13.92-2.34,56.37,56.37,0,0,1,11.64,1.25,31.77,31.77,0,0,1,9.88,3.63l-5.41,11.54a27.25,27.25,0,0,0-8.15-3.27,37.77,37.77,0,0,0-8-.89q-5.4,0-7.89,1.46a4.27,4.27,0,0,0-2.49,3.74,3.39,3.39,0,0,0,1.81,3.12,16.92,16.92,0,0,0,4.83,1.66c2,.41,4.21.78,6.6,1.09a61,61,0,0,1,7.23,1.4,26.34,26.34,0,0,1,6.59,2.65,13.89,13.89,0,0,1,4.84,4.68,14.35,14.35,0,0,1,1.87,7.74,14.54,14.54,0,0,1-3.12,9.2,20.47,20.47,0,0,1-9,6.28A39.56,39.56,0,0,1,1008.06,191.88Z" />
            <polygon points="159.5 8.1 173.63 29.64 363.84 29.64 363.84 8.1 159.5 8.1" />
            <polygon class="cls-2" points="209.81 88.17 222.04 107.64 363.84 107.64 363.84 88.17 209.81 88.17" />
            <polygon points="256.33 164.43 269.6 184.93 363.84 184.93 363.84 164.43 256.33 164.43" />
            <polygon class="cls-2" points="190.42 165.38 203 184.93 230.4 184.93 217.65 165.38 190.42 165.38" />
            <polygon points="29.28 185.74 0 185.74 123.49 8.1 188.96 108.94 160.97 108.94 122.47 51.47 29.28 185.74" />
        </g>
    </g>
</svg>