<?xml version="1.0" encoding="utf-8"?>
<!-- Generator: Adobe Illustrator 25.2.3, SVG Export Plug-In . SVG Version: 6.00 Build 0)  -->
<svg width="135" height="35" version="1.1" id="Layer_1" xmlns="http://www.w3.org/2000/svg"
	xmlns:xlink="http://www.w3.org/1999/xlink" x="0px" y="0px" viewBox="0 0 1080 1080"
	style="enable-background:new 0 0 1080 1080;" xml:space="preserve">
	<style type="text/css">
		.st0 {
			opacity: 0.57;
		}

		.st1 {
			fill: #366EB5;
		}
	</style>
	<polygon class="st0" points="190.15,314.23 190.32,313.96 190.2,314.26 " />
	<polygon points="190.34,313.92 190.32,313.96 190.33,313.92 " />
	<g>
		<path class="st1" d="M457.06,232.85l21.22-47.6h10.88l21.28,47.6h-11.56l-17.41-42.02h4.35l-17.48,42.02H457.06z M467.67,222.65
		l2.92-8.36h24.48l2.99,8.36H467.67z" />
		<path class="st1" d="M536.89,195.72c2.9,0,5.5,0.58,7.79,1.73c2.29,1.16,4.09,2.92,5.41,5.3c1.31,2.38,1.97,5.43,1.97,9.15v20.94
		h-10.61v-19.31c0-2.95-0.65-5.12-1.94-6.53c-1.29-1.4-3.12-2.11-5.47-2.11c-1.68,0-3.19,0.35-4.52,1.05
		c-1.34,0.7-2.38,1.78-3.13,3.23c-0.75,1.45-1.12,3.31-1.12,5.58v18.09h-10.61V182.4h10.61v24l-2.38-3.06
		c1.31-2.45,3.2-4.33,5.64-5.64C530.98,196.38,533.77,195.72,536.89,195.72z" />
		<path class="st1" d="M573.95,233.4c-3.13,0-6.13-0.37-9.01-1.12c-2.88-0.75-5.16-1.69-6.83-2.82l3.54-7.62
		c1.68,1.04,3.66,1.89,5.95,2.55s4.54,0.99,6.77,0.99c2.45,0,4.18-0.29,5.2-0.88c1.02-0.59,1.53-1.4,1.53-2.45
		c0-0.86-0.4-1.51-1.19-1.94c-0.79-0.43-1.85-0.76-3.16-0.99c-1.32-0.23-2.75-0.45-4.32-0.68c-1.56-0.23-3.14-0.53-4.73-0.92
		c-1.59-0.38-3.04-0.96-4.35-1.73c-1.32-0.77-2.37-1.81-3.16-3.13c-0.79-1.31-1.19-3.01-1.19-5.1c0-2.31,0.67-4.35,2.01-6.12
		c1.34-1.77,3.27-3.16,5.81-4.18c2.54-1.02,5.58-1.53,9.11-1.53c2.49,0,5.03,0.27,7.62,0.82c2.58,0.54,4.74,1.34,6.46,2.38
		l-3.54,7.55c-1.77-1.04-3.55-1.76-5.34-2.14c-1.79-0.38-3.53-0.58-5.2-0.58c-2.36,0-4.08,0.32-5.17,0.95
		c-1.09,0.64-1.63,1.45-1.63,2.45c0,0.91,0.4,1.59,1.19,2.04c0.79,0.45,1.85,0.82,3.16,1.09c1.31,0.27,2.75,0.51,4.32,0.71
		c1.56,0.2,3.14,0.51,4.73,0.92c1.59,0.41,3.03,0.99,4.32,1.73s2.35,1.77,3.16,3.06s1.22,2.98,1.22,5.07c0,2.27-0.68,4.27-2.04,6.02
		c-1.36,1.75-3.32,3.12-5.88,4.11C580.74,232.9,577.62,233.4,573.95,233.4z" />
		<path class="st1" d="M609.04,233.4c-2.86,0-5.3-0.49-7.34-1.46s-3.6-2.3-4.69-3.98c-1.09-1.68-1.63-3.56-1.63-5.64
		c0-2.18,0.53-4.08,1.6-5.71c1.06-1.63,2.75-2.91,5.07-3.84c2.31-0.93,5.33-1.39,9.04-1.39h9.72v6.19h-8.57
		c-2.49,0-4.21,0.41-5.13,1.22c-0.93,0.82-1.39,1.84-1.39,3.06c0,1.36,0.53,2.44,1.6,3.23c1.06,0.79,2.53,1.19,4.39,1.19
		c1.77,0,3.35-0.42,4.76-1.26s2.42-2.07,3.06-3.71l1.63,4.9c-0.77,2.36-2.18,4.15-4.22,5.37S612.26,233.4,609.04,233.4z
		 M620.19,232.85v-7.14l-0.68-1.56v-12.78c0-2.27-0.69-4.03-2.07-5.3c-1.38-1.27-3.5-1.9-6.36-1.9c-1.95,0-3.87,0.31-5.75,0.92
		c-1.88,0.61-3.48,1.44-4.79,2.48l-3.81-7.41c1.99-1.4,4.4-2.49,7.21-3.26c2.81-0.77,5.67-1.16,8.57-1.16
		c5.58,0,9.9,1.32,12.99,3.94s4.62,6.73,4.62,12.31v20.88H620.19z" />
		<path class="st1" d="M661.94,195.72c2.9,0,5.5,0.58,7.79,1.73c2.29,1.16,4.09,2.92,5.41,5.3c1.31,2.38,1.97,5.43,1.97,9.15v20.94
		H666.5v-19.31c0-2.95-0.65-5.12-1.94-6.53c-1.29-1.4-3.12-2.11-5.47-2.11c-1.68,0-3.19,0.35-4.52,1.05
		c-1.34,0.7-2.38,1.78-3.13,3.23c-0.75,1.45-1.12,3.31-1.12,5.58v18.09h-10.61v-36.58h10.13v10.13l-1.9-3.06
		c1.31-2.45,3.2-4.33,5.64-5.64C656.03,196.38,658.82,195.72,661.94,195.72z" />
	</g>
	<g>
		<path
			d="M474.05,306.23h25.91v8.84H463.1v-47.6h35.97v8.84h-25.02V306.23z M473.23,286.64h22.92v8.57h-22.92V286.64z" />
		<path d="M530.21,277.94c2.9,0,5.5,0.58,7.79,1.73c2.29,1.16,4.09,2.92,5.41,5.3c1.31,2.38,1.97,5.43,1.97,9.15v20.94h-10.61v-19.31
		c0-2.95-0.65-5.12-1.94-6.53c-1.29-1.4-3.12-2.11-5.47-2.11c-1.68,0-3.19,0.35-4.52,1.05c-1.34,0.7-2.38,1.78-3.13,3.23
		c-0.75,1.45-1.12,3.31-1.12,5.58v18.09h-10.61v-36.58h10.13v10.13l-1.9-3.06c1.31-2.45,3.2-4.33,5.64-5.64
		C524.3,278.6,527.09,277.94,530.21,277.94z" />
		<path d="M550.62,287.46v-8.16h25.36v8.16H550.62z M569.93,315.61c-4.31,0-7.66-1.1-10.06-3.3c-2.4-2.2-3.6-5.47-3.6-9.83v-32.1
		h10.61v31.96c0,1.54,0.41,2.73,1.22,3.57c0.82,0.84,1.93,1.26,3.33,1.26c1.68,0,3.11-0.45,4.28-1.36l2.86,7.48
		c-1.09,0.77-2.39,1.35-3.91,1.73C573.13,315.42,571.56,315.61,569.93,315.61z" />
		<path d="M601.55,315.61c-4.17,0-7.83-0.82-10.98-2.45c-3.15-1.63-5.59-3.86-7.31-6.7s-2.58-6.06-2.58-9.69
		c0-3.67,0.85-6.92,2.55-9.76c1.7-2.83,4.02-5.05,6.97-6.66c2.95-1.61,6.28-2.41,10-2.41c3.58,0,6.81,0.76,9.69,2.28
		s5.16,3.7,6.83,6.53c1.68,2.83,2.52,6.22,2.52,10.17c0,0.41-0.02,0.87-0.07,1.39c-0.05,0.52-0.09,1.01-0.14,1.46h-29.72v-6.19
		h24.14l-4.08,1.84c0-1.9-0.39-3.56-1.16-4.96c-0.77-1.4-1.84-2.5-3.2-3.3c-1.36-0.79-2.95-1.19-4.76-1.19
		c-1.81,0-3.41,0.4-4.79,1.19c-1.38,0.79-2.46,1.9-3.23,3.33c-0.77,1.43-1.16,3.12-1.16,5.07v1.63c0,2,0.44,3.75,1.33,5.27
		c0.88,1.52,2.13,2.68,3.74,3.47c1.61,0.79,3.5,1.19,5.68,1.19c1.95,0,3.66-0.29,5.13-0.88c1.47-0.59,2.82-1.47,4.05-2.65l5.64,6.12
		c-1.68,1.9-3.79,3.37-6.32,4.39C607.78,315.1,604.86,315.61,601.55,315.61z" />
		<path d="M626.3,315.07v-36.58h10.13v10.34l-1.43-2.99c1.09-2.58,2.83-4.54,5.24-5.88c2.4-1.34,5.33-2.01,8.77-2.01v9.79
		c-0.45-0.04-0.86-0.08-1.22-0.1c-0.36-0.02-0.75-0.03-1.16-0.03c-2.9,0-5.25,0.83-7.04,2.48c-1.79,1.66-2.69,4.23-2.69,7.72v17.27
		H626.3z" />
		<path d="M655.33,328.26v-49.78h10.13v7.48l-0.2,10.88l0.68,10.81v20.6H655.33z M676.96,315.61c-3.08,0-5.78-0.68-8.09-2.04
		c-2.31-1.36-4.11-3.43-5.41-6.22s-1.94-6.31-1.94-10.57c0-4.31,0.61-7.84,1.84-10.61c1.22-2.76,2.99-4.83,5.3-6.19
		c2.31-1.36,5.08-2.04,8.3-2.04c3.45,0,6.54,0.78,9.28,2.35c2.74,1.56,4.92,3.75,6.53,6.56c1.61,2.81,2.41,6.12,2.41,9.93
		c0,3.85-0.81,7.19-2.41,10c-1.61,2.81-3.79,4.99-6.53,6.53C683.5,314.84,680.4,315.61,676.96,315.61z M675.12,306.91
		c1.77,0,3.34-0.41,4.73-1.22c1.38-0.82,2.49-1.98,3.33-3.5c0.84-1.52,1.26-3.32,1.26-5.41c0-2.13-0.42-3.94-1.26-5.44
		c-0.84-1.5-1.95-2.65-3.33-3.47c-1.38-0.82-2.96-1.22-4.73-1.22c-1.77,0-3.35,0.41-4.76,1.22c-1.41,0.82-2.52,1.97-3.33,3.47
		c-0.82,1.5-1.22,3.31-1.22,5.44c0,2.09,0.41,3.89,1.22,5.41c0.82,1.52,1.93,2.69,3.33,3.5
		C671.77,306.5,673.35,306.91,675.12,306.91z" />
		<path d="M702.25,315.07v-36.58h10.13v10.34l-1.43-2.99c1.09-2.58,2.83-4.54,5.24-5.88c2.4-1.34,5.33-2.01,8.77-2.01v9.79
		c-0.45-0.04-0.86-0.08-1.22-0.1c-0.36-0.02-0.75-0.03-1.16-0.03c-2.9,0-5.25,0.83-7.04,2.48c-1.79,1.66-2.69,4.23-2.69,7.72v17.27
		H702.25z" />
		<path d="M736.59,273.38c-1.95,0-3.54-0.57-4.76-1.7c-1.22-1.13-1.84-2.54-1.84-4.22c0-1.68,0.61-3.08,1.84-4.22
		c1.22-1.13,2.81-1.7,4.76-1.7c1.95,0,3.54,0.53,4.76,1.6c1.22,1.07,1.84,2.44,1.84,4.11c0,1.77-0.6,3.23-1.8,4.39
		C740.19,272.81,738.59,273.38,736.59,273.38z M731.29,315.07v-36.58h10.61v36.58H731.29z" />
		<path d="M764.07,315.61c-3.13,0-6.13-0.37-9.01-1.12c-2.88-0.75-5.16-1.69-6.83-2.82l3.54-7.62c1.68,1.04,3.66,1.89,5.95,2.55
		s4.54,0.99,6.77,0.99c2.45,0,4.18-0.29,5.2-0.88c1.02-0.59,1.53-1.4,1.53-2.45c0-0.86-0.4-1.51-1.19-1.94
		c-0.79-0.43-1.85-0.76-3.16-0.99c-1.32-0.23-2.75-0.45-4.32-0.68c-1.56-0.23-3.14-0.53-4.73-0.92c-1.59-0.38-3.04-0.96-4.35-1.73
		c-1.32-0.77-2.37-1.81-3.16-3.13c-0.79-1.31-1.19-3.01-1.19-5.1c0-2.31,0.67-4.35,2.01-6.12c1.34-1.77,3.27-3.16,5.81-4.18
		c2.54-1.02,5.58-1.53,9.11-1.53c2.49,0,5.03,0.27,7.62,0.82c2.58,0.54,4.74,1.34,6.46,2.38l-3.54,7.55
		c-1.77-1.04-3.55-1.76-5.34-2.14c-1.79-0.38-3.53-0.58-5.2-0.58c-2.36,0-4.08,0.32-5.17,0.95c-1.09,0.64-1.63,1.45-1.63,2.45
		c0,0.91,0.4,1.59,1.19,2.04c0.79,0.45,1.85,0.82,3.16,1.09c1.31,0.27,2.75,0.51,4.32,0.71c1.56,0.2,3.14,0.51,4.73,0.92
		c1.59,0.41,3.03,0.99,4.32,1.73s2.35,1.77,3.16,3.06s1.22,2.98,1.22,5.07c0,2.27-0.68,4.27-2.04,6.02
		c-1.36,1.75-3.32,3.12-5.88,4.11C770.85,315.11,767.74,315.61,764.07,315.61z" />
		<path d="M806.02,315.61c-4.17,0-7.83-0.82-10.98-2.45c-3.15-1.63-5.59-3.86-7.31-6.7s-2.58-6.06-2.58-9.69
		c0-3.67,0.85-6.92,2.55-9.76c1.7-2.83,4.02-5.05,6.97-6.66c2.95-1.61,6.28-2.41,10-2.41c3.58,0,6.81,0.76,9.69,2.28
		s5.16,3.7,6.83,6.53c1.68,2.83,2.52,6.22,2.52,10.17c0,0.41-0.02,0.87-0.07,1.39c-0.05,0.52-0.09,1.01-0.14,1.46h-29.72v-6.19
		h24.14l-4.08,1.84c0-1.9-0.39-3.56-1.16-4.96c-0.77-1.4-1.84-2.5-3.2-3.3c-1.36-0.79-2.95-1.19-4.76-1.19
		c-1.81,0-3.41,0.4-4.79,1.19c-1.38,0.79-2.46,1.9-3.23,3.33c-0.77,1.43-1.16,3.12-1.16,5.07v1.63c0,2,0.44,3.75,1.33,5.27
		c0.88,1.52,2.13,2.68,3.74,3.47c1.61,0.79,3.5,1.19,5.68,1.19c1.95,0,3.66-0.29,5.13-0.88c1.47-0.59,2.82-1.47,4.05-2.65l5.64,6.12
		c-1.68,1.9-3.79,3.37-6.32,4.39C812.25,315.1,809.33,315.61,806.02,315.61z" />
		<path d="M843.08,315.61c-3.13,0-6.13-0.37-9.01-1.12c-2.88-0.75-5.16-1.69-6.83-2.82l3.54-7.62c1.68,1.04,3.66,1.89,5.95,2.55
		s4.54,0.99,6.77,0.99c2.45,0,4.18-0.29,5.2-0.88c1.02-0.59,1.53-1.4,1.53-2.45c0-0.86-0.4-1.51-1.19-1.94
		c-0.79-0.43-1.85-0.76-3.16-0.99c-1.32-0.23-2.75-0.45-4.32-0.68c-1.56-0.23-3.14-0.53-4.73-0.92c-1.59-0.38-3.04-0.96-4.35-1.73
		c-1.32-0.77-2.37-1.81-3.16-3.13c-0.79-1.31-1.19-3.01-1.19-5.1c0-2.31,0.67-4.35,2.01-6.12c1.34-1.77,3.27-3.16,5.81-4.18
		c2.54-1.02,5.58-1.53,9.11-1.53c2.49,0,5.03,0.27,7.62,0.82c2.58,0.54,4.74,1.34,6.46,2.38l-3.54,7.55
		c-1.77-1.04-3.55-1.76-5.34-2.14c-1.79-0.38-3.53-0.58-5.2-0.58c-2.36,0-4.08,0.32-5.17,0.95c-1.09,0.64-1.63,1.45-1.63,2.45
		c0,0.91,0.4,1.59,1.19,2.04c0.79,0.45,1.85,0.82,3.16,1.09c1.31,0.27,2.75,0.51,4.32,0.71c1.56,0.2,3.14,0.51,4.73,0.92
		c1.59,0.41,3.03,0.99,4.32,1.73s2.35,1.77,3.16,3.06s1.22,2.98,1.22,5.07c0,2.27-0.68,4.27-2.04,6.02
		c-1.36,1.75-3.32,3.12-5.88,4.11C849.87,315.11,846.75,315.61,843.08,315.61z" />
	</g>
	<polygon points="289.22,185.16 299.6,200.98 439.29,200.98 439.29,185.16 " />
	<polygon class="st1" points="326.17,243.96 335.15,258.26 439.29,258.26 439.29,243.96 " />
	<polygon points="360.33,299.96 370.08,315.02 439.29,315.02 439.29,299.96 " />
	<polygon class="st1" points="311.93,300.66 321.17,315.02 341.29,315.02 331.92,300.66 " />
	<polygon points="193.59,315.61 172.09,315.61 262.78,185.16 310.86,259.21 290.3,259.21 262.03,217.01 " />
</svg>