<?xml version="1.0" encoding="utf-8"?>
<!-- Generator: Adobe Illustrator 25.2.3, SVG Export Plug-In . SVG Version: 6.00 Build 0)  -->
<svg width="130px" version="1.1" id="Layer_1" xmlns="http://www.w3.org/2000/svg"
	xmlns:xlink="http://www.w3.org/1999/xlink" x="0px" y="0px" viewBox="0 0 1080 1080"
	style="enable-background:new 0 0 1080 1080;" xml:space="preserve">
	<style type="text/css">
		.st0 {
			opacity: 0.57;
		}

		.st1 {
			fill: #376EB5;
		}
	</style>
	<polygon class="st0" points="190.15,314.23 190.32,313.96 190.2,314.26 " />
	<polygon points="190.34,313.92 190.32,313.96 190.33,313.92 " />
	<g>
		<path class="st1" d="M166.25,344.14l9.05-20.3h4.64l9.08,20.3h-4.93l-7.42-17.92h1.86l-7.45,17.92H166.25z M170.77,339.79
		l1.25-3.57h10.44l1.28,3.57H170.77z" />
		<path class="st1" d="M200.29,328.31c1.24,0,2.34,0.25,3.32,0.74c0.98,0.49,1.74,1.25,2.31,2.26c0.56,1.01,0.84,2.32,0.84,3.9v8.93
		h-4.52v-8.24c0-1.26-0.28-2.18-0.83-2.78c-0.55-0.6-1.33-0.9-2.33-0.9c-0.71,0-1.36,0.15-1.93,0.45c-0.57,0.3-1.02,0.76-1.33,1.38
		c-0.32,0.62-0.48,1.41-0.48,2.38v7.71h-4.52v-21.52h4.52v10.24l-1.02-1.3c0.56-1.04,1.36-1.85,2.41-2.41
		C197.77,328.59,198.96,328.31,200.29,328.31z" />
		<path class="st1" d="M216.1,344.37c-1.33,0-2.62-0.16-3.84-0.48c-1.23-0.32-2.2-0.72-2.91-1.2l1.51-3.25
		c0.71,0.45,1.56,0.81,2.54,1.09c0.98,0.28,1.94,0.42,2.88,0.42c1.04,0,1.78-0.12,2.22-0.38c0.43-0.25,0.65-0.6,0.65-1.04
		c0-0.37-0.17-0.64-0.51-0.83c-0.34-0.18-0.79-0.32-1.35-0.42c-0.56-0.1-1.17-0.19-1.84-0.29c-0.67-0.1-1.34-0.23-2.02-0.39
		s-1.3-0.41-1.86-0.74c-0.56-0.33-1.01-0.77-1.35-1.33c-0.34-0.56-0.51-1.29-0.51-2.17c0-0.99,0.29-1.86,0.86-2.61
		c0.57-0.75,1.4-1.35,2.48-1.78c1.08-0.43,2.38-0.65,3.89-0.65c1.06,0,2.15,0.12,3.25,0.35c1.1,0.23,2.02,0.57,2.75,1.02l-1.51,3.22
		c-0.75-0.44-1.51-0.75-2.28-0.91s-1.5-0.25-2.22-0.25c-1,0-1.74,0.14-2.2,0.41c-0.46,0.27-0.7,0.62-0.7,1.04
		c0,0.39,0.17,0.68,0.51,0.87s0.79,0.35,1.35,0.46s1.17,0.22,1.84,0.3s1.34,0.22,2.02,0.39c0.68,0.17,1.29,0.42,1.84,0.74
		c0.55,0.32,1,0.75,1.35,1.3c0.35,0.55,0.52,1.27,0.52,2.16c0,0.97-0.29,1.82-0.87,2.57s-1.42,1.33-2.51,1.75
		C218.99,344.16,217.67,344.37,216.1,344.37z" />
		<path class="st1" d="M231.06,344.37c-1.22,0-2.26-0.21-3.13-0.62c-0.87-0.42-1.54-0.98-2-1.7c-0.46-0.71-0.7-1.52-0.7-2.41
		c0-0.93,0.23-1.74,0.68-2.44c0.45-0.7,1.17-1.24,2.16-1.64s2.27-0.59,3.86-0.59h4.15v2.64h-3.65c-1.06,0-1.79,0.17-2.19,0.52
		s-0.59,0.78-0.59,1.3c0,0.58,0.23,1.04,0.68,1.38s1.08,0.51,1.87,0.51c0.75,0,1.43-0.18,2.03-0.54c0.6-0.36,1.03-0.88,1.3-1.58
		l0.7,2.09c-0.33,1-0.93,1.77-1.8,2.29C233.56,344.11,232.43,344.37,231.06,344.37z M235.82,344.14v-3.04l-0.29-0.67v-5.45
		c0-0.97-0.29-1.72-0.88-2.26s-1.49-0.81-2.71-0.81c-0.83,0-1.65,0.13-2.45,0.39c-0.8,0.26-1.48,0.61-2.04,1.06l-1.62-3.16
		c0.85-0.6,1.88-1.06,3.07-1.39c1.2-0.33,2.42-0.49,3.65-0.49c2.38,0,4.22,0.56,5.54,1.68c1.31,1.12,1.97,2.87,1.97,5.25v8.9H235.82
		z" />
		<path class="st1" d="M253.62,328.31c1.24,0,2.34,0.25,3.32,0.74c0.98,0.49,1.74,1.25,2.31,2.26c0.56,1.01,0.84,2.32,0.84,3.9v8.93
		h-4.52v-8.24c0-1.26-0.28-2.18-0.83-2.78c-0.55-0.6-1.33-0.9-2.33-0.9c-0.71,0-1.36,0.15-1.93,0.45c-0.57,0.3-1.02,0.76-1.33,1.38
		c-0.32,0.62-0.48,1.41-0.48,2.38v7.71h-4.52v-15.6h4.32v4.32l-0.81-1.3c0.56-1.04,1.36-1.85,2.41-2.41
		C251.1,328.59,252.29,328.31,253.62,328.31z" />
		<path
			d="M277.37,340.37h11.05v3.77h-15.72v-20.3h15.34v3.77h-10.67V340.37z M277.03,332.02h9.77v3.65h-9.77V332.02z" />
		<path d="M301.33,328.31c1.24,0,2.34,0.25,3.32,0.74c0.98,0.49,1.74,1.25,2.31,2.26c0.56,1.01,0.84,2.32,0.84,3.9v8.93h-4.52v-8.24
		c0-1.26-0.28-2.18-0.83-2.78c-0.55-0.6-1.33-0.9-2.33-0.9c-0.71,0-1.36,0.15-1.93,0.45c-0.57,0.3-1.02,0.76-1.33,1.38
		c-0.32,0.62-0.48,1.41-0.48,2.38v7.71h-4.52v-15.6h4.32v4.32l-0.81-1.3c0.56-1.04,1.36-1.85,2.41-2.41
		C298.8,328.59,299.99,328.31,301.33,328.31z" />
		<path d="M310.03,332.37v-3.48h10.82v3.48H310.03z M318.26,344.37c-1.84,0-3.27-0.47-4.29-1.41c-1.02-0.94-1.54-2.33-1.54-4.19
		v-13.69h4.52v13.63c0,0.66,0.17,1.17,0.52,1.52c0.35,0.36,0.82,0.54,1.42,0.54c0.71,0,1.32-0.19,1.83-0.58l1.22,3.19
		c-0.46,0.33-1.02,0.58-1.67,0.74S318.96,344.37,318.26,344.37z" />
		<path d="M331.75,344.37c-1.78,0-3.34-0.35-4.68-1.04c-1.34-0.7-2.38-1.65-3.12-2.86c-0.74-1.21-1.1-2.58-1.1-4.13
		c0-1.57,0.36-2.95,1.09-4.16c0.72-1.21,1.72-2.16,2.97-2.84c1.26-0.69,2.68-1.03,4.26-1.03c1.53,0,2.9,0.32,4.13,0.97
		c1.23,0.65,2.2,1.58,2.91,2.78c0.71,1.21,1.07,2.65,1.07,4.33c0,0.17-0.01,0.37-0.03,0.59c-0.02,0.22-0.04,0.43-0.06,0.62h-12.67
		v-2.64h10.29l-1.74,0.78c0-0.81-0.16-1.52-0.49-2.12c-0.33-0.6-0.78-1.07-1.36-1.41c-0.58-0.34-1.26-0.51-2.03-0.51
		c-0.77,0-1.46,0.17-2.04,0.51s-1.05,0.81-1.38,1.42c-0.33,0.61-0.49,1.33-0.49,2.16v0.7c0,0.85,0.19,1.6,0.57,2.25
		c0.38,0.65,0.91,1.14,1.59,1.48s1.49,0.51,2.42,0.51c0.83,0,1.56-0.13,2.19-0.38c0.63-0.25,1.2-0.63,1.73-1.13l2.41,2.61
		c-0.71,0.81-1.61,1.44-2.7,1.87C334.41,344.15,333.16,344.37,331.75,344.37z" />
		<path d="M342.3,344.14v-15.6h4.32v4.41l-0.61-1.28c0.46-1.1,1.21-1.94,2.23-2.51c1.02-0.57,2.27-0.86,3.74-0.86v4.18
		c-0.19-0.02-0.37-0.03-0.52-0.04c-0.16-0.01-0.32-0.01-0.49-0.01c-1.24,0-2.24,0.35-3,1.06c-0.76,0.71-1.15,1.8-1.15,3.29v7.37
		H342.3z" />
		<path d="M354.69,349.77v-21.23h4.32v3.19l-0.09,4.64l0.29,4.61v8.79H354.69z M363.91,344.37c-1.31,0-2.46-0.29-3.45-0.87
		c-0.99-0.58-1.75-1.46-2.31-2.65c-0.55-1.19-0.83-2.69-0.83-4.51c0-1.84,0.26-3.34,0.78-4.52c0.52-1.18,1.28-2.06,2.26-2.64
		c0.99-0.58,2.17-0.87,3.54-0.87c1.47,0,2.79,0.33,3.96,1c1.17,0.67,2.1,1.6,2.78,2.8c0.69,1.2,1.03,2.61,1.03,4.23
		c0,1.64-0.34,3.06-1.03,4.26c-0.69,1.2-1.61,2.13-2.78,2.78S365.38,344.37,363.91,344.37z M363.13,340.66
		c0.75,0,1.42-0.17,2.02-0.52c0.59-0.35,1.06-0.85,1.42-1.49c0.36-0.65,0.54-1.42,0.54-2.31c0-0.91-0.18-1.68-0.54-2.32
		c-0.36-0.64-0.83-1.13-1.42-1.48c-0.59-0.35-1.26-0.52-2.02-0.52s-1.43,0.17-2.03,0.52c-0.6,0.35-1.07,0.84-1.42,1.48
		c-0.35,0.64-0.52,1.41-0.52,2.32c0,0.89,0.17,1.66,0.52,2.31c0.35,0.65,0.82,1.15,1.42,1.49
		C361.7,340.49,362.37,340.66,363.13,340.66z" />
		<path d="M374.7,344.14v-15.6h4.32v4.41l-0.61-1.28c0.46-1.1,1.21-1.94,2.23-2.51c1.02-0.57,2.27-0.86,3.74-0.86v4.18
		c-0.19-0.02-0.37-0.03-0.52-0.04c-0.16-0.01-0.32-0.01-0.49-0.01c-1.24,0-2.24,0.35-3,1.06c-0.76,0.71-1.15,1.8-1.15,3.29v7.37
		H374.7z" />
		<path d="M389.34,326.36c-0.83,0-1.51-0.24-2.03-0.72c-0.52-0.48-0.78-1.08-0.78-1.8s0.26-1.31,0.78-1.8
		c0.52-0.48,1.2-0.73,2.03-0.73s1.51,0.23,2.03,0.68c0.52,0.45,0.78,1.04,0.78,1.75c0,0.75-0.26,1.38-0.77,1.87
		C390.87,326.12,390.19,326.36,389.34,326.36z M387.08,344.14v-15.6h4.52v15.6H387.08z" />
		<path d="M401.06,344.37c-1.33,0-2.62-0.16-3.84-0.48c-1.23-0.32-2.2-0.72-2.91-1.2l1.51-3.25c0.71,0.45,1.56,0.81,2.54,1.09
		c0.98,0.28,1.94,0.42,2.88,0.42c1.04,0,1.78-0.12,2.22-0.38c0.43-0.25,0.65-0.6,0.65-1.04c0-0.37-0.17-0.64-0.51-0.83
		c-0.34-0.18-0.79-0.32-1.35-0.42c-0.56-0.1-1.17-0.19-1.84-0.29c-0.67-0.1-1.34-0.23-2.02-0.39s-1.3-0.41-1.86-0.74
		c-0.56-0.33-1.01-0.77-1.35-1.33c-0.34-0.56-0.51-1.29-0.51-2.17c0-0.99,0.29-1.86,0.86-2.61c0.57-0.75,1.4-1.35,2.48-1.78
		c1.08-0.43,2.38-0.65,3.89-0.65c1.06,0,2.15,0.12,3.25,0.35c1.1,0.23,2.02,0.57,2.75,1.02l-1.51,3.22
		c-0.75-0.44-1.51-0.75-2.28-0.91s-1.5-0.25-2.22-0.25c-1,0-1.74,0.14-2.2,0.41c-0.46,0.27-0.7,0.62-0.7,1.04
		c0,0.39,0.17,0.68,0.51,0.87s0.79,0.35,1.35,0.46s1.17,0.22,1.84,0.3s1.34,0.22,2.02,0.39c0.68,0.17,1.29,0.42,1.84,0.74
		c0.55,0.32,1,0.75,1.35,1.3c0.35,0.55,0.52,1.27,0.52,2.16c0,0.97-0.29,1.82-0.87,2.57s-1.42,1.33-2.51,1.75
		C403.95,344.16,402.62,344.37,401.06,344.37z" />
		<path d="M418.95,344.37c-1.78,0-3.34-0.35-4.68-1.04c-1.34-0.7-2.38-1.65-3.12-2.86c-0.74-1.21-1.1-2.58-1.1-4.13
		c0-1.57,0.36-2.95,1.09-4.16c0.72-1.21,1.72-2.16,2.97-2.84c1.26-0.69,2.68-1.03,4.26-1.03c1.53,0,2.9,0.32,4.13,0.97
		c1.23,0.65,2.2,1.58,2.91,2.78c0.71,1.21,1.07,2.65,1.07,4.33c0,0.17-0.01,0.37-0.03,0.59c-0.02,0.22-0.04,0.43-0.06,0.62h-12.67
		v-2.64h10.29l-1.74,0.78c0-0.81-0.16-1.52-0.49-2.12c-0.33-0.6-0.78-1.07-1.36-1.41c-0.58-0.34-1.26-0.51-2.03-0.51
		c-0.77,0-1.46,0.17-2.04,0.51s-1.05,0.81-1.38,1.42c-0.33,0.61-0.49,1.33-0.49,2.16v0.7c0,0.85,0.19,1.6,0.57,2.25
		c0.38,0.65,0.91,1.14,1.59,1.48s1.49,0.51,2.42,0.51c0.83,0,1.56-0.13,2.19-0.38c0.63-0.25,1.2-0.63,1.73-1.13l2.41,2.61
		c-0.71,0.81-1.61,1.44-2.7,1.87C421.61,344.15,420.36,344.37,418.95,344.37z" />
		<path d="M434.76,344.37c-1.33,0-2.62-0.16-3.84-0.48c-1.23-0.32-2.2-0.72-2.91-1.2l1.51-3.25c0.71,0.45,1.56,0.81,2.54,1.09
		c0.98,0.28,1.94,0.42,2.88,0.42c1.04,0,1.78-0.12,2.22-0.38c0.43-0.25,0.65-0.6,0.65-1.04c0-0.37-0.17-0.64-0.51-0.83
		c-0.34-0.18-0.79-0.32-1.35-0.42c-0.56-0.1-1.17-0.19-1.84-0.29c-0.67-0.1-1.34-0.23-2.02-0.39s-1.3-0.41-1.86-0.74
		c-0.56-0.33-1.01-0.77-1.35-1.33c-0.34-0.56-0.51-1.29-0.51-2.17c0-0.99,0.29-1.86,0.86-2.61c0.57-0.75,1.4-1.35,2.48-1.78
		c1.08-0.43,2.38-0.65,3.89-0.65c1.06,0,2.15,0.12,3.25,0.35c1.1,0.23,2.02,0.57,2.75,1.02l-1.51,3.22
		c-0.75-0.44-1.51-0.75-2.28-0.91s-1.5-0.25-2.22-0.25c-1,0-1.74,0.14-2.2,0.41c-0.46,0.27-0.7,0.62-0.7,1.04
		c0,0.39,0.17,0.68,0.51,0.87s0.79,0.35,1.35,0.46s1.17,0.22,1.84,0.3s1.34,0.22,2.02,0.39c0.68,0.17,1.29,0.42,1.84,0.74
		c0.55,0.32,1,0.75,1.35,1.3c0.35,0.55,0.52,1.27,0.52,2.16c0,0.97-0.29,1.82-0.87,2.57s-1.42,1.33-2.51,1.75
		C437.65,344.16,436.32,344.37,434.76,344.37z" />
	</g>
	<polygon points="289.22,185.16 299.6,200.98 439.29,200.98 439.29,185.16 " />
	<polygon class="st1" points="326.17,243.96 335.15,258.26 439.29,258.26 439.29,243.96 " />
	<polygon points="360.33,299.96 370.08,315.02 439.29,315.02 439.29,299.96 " />
	<polygon class="st1" points="311.93,300.66 321.17,315.02 341.29,315.02 331.92,300.66 " />
	<polygon points="193.59,315.61 172.09,315.61 262.78,185.16 310.86,259.21 290.3,259.21 262.03,217.01 " />
</svg>